<svg xmlns="http://www.w3.org/2000/svg" width="377.00mm" height="48.00mm" viewBox="0 0 377.000 48.000">
<rect x="0" y="0" width="377.000" height="48.000" fill="#fff"/>
<circle cx="24.0" cy="24.0" r="20.000" fill="#000"/>
<circle cx="24.0" cy="24.0" r="17.200" fill="#fff"/>
<circle cx="24.0" cy="24.0" r="4.400" fill="#000"/>
<path d="M33.200,24.000 A9.200,9.200 0 0 1 32.500,27.521 L29.543,26.296 A6.000,6.000 0 0 0 30.000,24.000 Z M32.500,27.521 A9.200,9.200 0 0 1 30.505,30.505 L28.243,28.243 A6.000,6.000 0 0 0 29.543,26.296 Z M17.495,30.505 A9.200,9.200 0 0 1 15.500,27.521 L18.457,26.296 A6.000,6.000 0 0 0 19.757,28.243 Z M15.500,27.521 A9.200,9.200 0 0 1 14.800,24.000 L18.000,24.000 A6.000,6.000 0 0 0 18.457,26.296 Z M17.495,17.495 A9.200,9.200 0 0 1 20.479,15.500 L21.704,18.457 A6.000,6.000 0 0 0 19.757,19.757 Z M20.479,15.500 A9.200,9.200 0 0 1 24.000,14.800 L24.000,18.000 A6.000,6.000 0 0 0 21.704,18.457 Z M27.521,15.500 A9.200,9.200 0 0 1 30.505,17.495 L28.243,19.757 A6.000,6.000 0 0 0 26.296,18.457 Z M30.505,17.495 A9.200,9.200 0 0 1 32.500,20.479 L29.543,21.704 A6.000,6.000 0 0 0 28.243,19.757 Z M32.500,20.479 A9.200,9.200 0 0 1 33.200,24.000 L30.000,24.000 A6.000,6.000 0 0 0 29.543,21.704 Z M28.745,35.456 A12.400,12.400 0 0 1 24.000,36.400 L24.000,33.200 A9.200,9.200 0 0 0 27.521,32.500 Z M24.000,36.400 A12.400,12.400 0 0 1 19.255,35.456 L20.479,32.500 A9.200,9.200 0 0 0 24.000,33.200 Z M19.255,35.456 A12.400,12.400 0 0 1 15.232,32.768 L17.495,30.505 A9.200,9.200 0 0 0 20.479,32.500 Z M15.232,32.768 A12.400,12.400 0 0 1 12.544,28.745 L15.500,27.521 A9.200,9.200 0 0 0 17.495,30.505 Z M12.544,28.745 A12.400,12.400 0 0 1 11.600,24.000 L14.800,24.000 A9.200,9.200 0 0 0 15.500,27.521 Z M12.544,19.255 A12.400,12.400 0 0 1 15.232,15.232 L17.495,17.495 A9.200,9.200 0 0 0 15.500,20.479 Z M15.232,15.232 A12.400,12.400 0 0 1 19.255,12.544 L20.479,15.500 A9.200,9.200 0 0 0 17.495,17.495 Z M19.255,12.544 A12.400,12.400 0 0 1 24.000,11.600 L24.000,14.800 A9.200,9.200 0 0 0 20.479,15.500 Z M24.000,11.600 A12.400,12.400 0 0 1 28.745,12.544 L27.521,15.500 A9.200,9.200 0 0 0 24.000,14.800 Z M35.456,19.255 A12.400,12.400 0 0 1 36.400,24.000 L33.200,24.000 A9.200,9.200 0 0 0 32.500,20.479 Z M39.600,24.000 A15.600,15.600 0 0 1 38.413,29.970 L35.456,28.745 A12.400,12.400 0 0 0 36.400,24.000 Z M38.413,29.970 A15.600,15.600 0 0 1 35.031,35.031 L32.768,32.768 A12.400,12.400 0 0 0 35.456,28.745 Z M29.970,38.413 A15.600,15.600 0 0 1 24.000,39.600 L24.000,36.400 A12.400,12.400 0 0 0 28.745,35.456 Z M18.030,38.413 A15.600,15.600 0 0 1 12.969,35.031 L15.232,32.768 A12.400,12.400 0 0 0 19.255,35.456 Z M12.969,35.031 A15.600,15.600 0 0 1 9.587,29.970 L12.544,28.745 A12.400,12.400 0 0 0 15.232,32.768 Z M8.400,24.000 A15.600,15.600 0 0 1 9.587,18.030 L12.544,19.255 A12.400,12.400 0 0 0 11.600,24.000 Z M9.587,18.030 A15.600,15.600 0 0 1 12.969,12.969 L15.232,15.232 A12.400,12.400 0 0 0 12.544,19.255 Z M18.030,9.587 A15.600,15.600 0 0 1 24.000,8.400 L24.000,11.600 A12.400,12.400 0 0 0 19.255,12.544 Z M29.970,9.587 A15.600,15.600 0 0 1 35.031,12.969 L32.768,15.232 A12.400,12.400 0 0 0 28.745,12.544 Z M35.031,12.969 A15.600,15.600 0 0 1 38.413,18.030 L35.456,19.255 A12.400,12.400 0 0 0 32.768,15.232 Z" fill="#000"/>
<circle cx="71.0" cy="24.0" r="20.000" fill="#000"/>
<circle cx="71.0" cy="24.0" r="17.200" fill="#fff"/>
<circle cx="71.0" cy="24.0" r="4.400" fill="#000"/>
<path d="M80.200,24.000 A9.200,9.200 0 0 1 79.500,27.521 L76.543,26.296 A6.000,6.000 0 0 0 77.000,24.000 Z M79.500,27.521 A9.200,9.200 0 0 1 77.505,30.505 L75.243,28.243 A6.000,6.000 0 0 0 76.543,26.296 Z M64.495,30.505 A9.200,9.200 0 0 1 62.500,27.521 L65.457,26.296 A6.000,6.000 0 0 0 66.757,28.243 Z M62.500,27.521 A9.200,9.200 0 0 1 61.800,24.000 L65.000,24.000 A6.000,6.000 0 0 0 65.457,26.296 Z M64.495,17.495 A9.200,9.200 0 0 1 67.479,15.500 L68.704,18.457 A6.000,6.000 0 0 0 66.757,19.757 Z M67.479,15.500 A9.200,9.200 0 0 1 71.000,14.800 L71.000,18.000 A6.000,6.000 0 0 0 68.704,18.457 Z M74.521,15.500 A9.200,9.200 0 0 1 77.505,17.495 L75.243,19.757 A6.000,6.000 0 0 0 73.296,18.457 Z M77.505,17.495 A9.200,9.200 0 0 1 79.500,20.479 L76.543,21.704 A6.000,6.000 0 0 0 75.243,19.757 Z M79.500,20.479 A9.200,9.200 0 0 1 80.200,24.000 L77.000,24.000 A6.000,6.000 0 0 0 76.543,21.704 Z M79.768,32.768 A12.400,12.400 0 0 1 75.745,35.456 L74.521,32.500 A9.200,9.200 0 0 0 77.505,30.505 Z M71.000,36.400 A12.400,12.400 0 0 1 66.255,35.456 L67.479,32.500 A9.200,9.200 0 0 0 71.000,33.200 Z M66.255,35.456 A12.400,12.400 0 0 1 62.232,32.768 L64.495,30.505 A9.200,9.200 0 0 0 67.479,32.500 Z M62.232,32.768 A12.400,12.400 0 0 1 59.544,28.745 L62.500,27.521 A9.200,9.200 0 0 0 64.495,30.505 Z M58.600,24.000 A12.400,12.400 0 0 1 59.544,19.255 L62.500,20.479 A9.200,9.200 0 0 0 61.800,24.000 Z M59.544,19.255 A12.400,12.400 0 0 1 62.232,15.232 L64.495,17.495 A9.200,9.200 0 0 0 62.500,20.479 Z M66.255,12.544 A12.400,12.400 0 0 1 71.000,11.600 L71.000,14.800 A9.200,9.200 0 0 0 67.479,15.500 Z M82.456,19.255 A12.400,12.400 0 0 1 83.400,24.000 L80.200,24.000 A9.200,9.200 0 0 0 79.500,20.479 Z M86.600,24.000 A15.600,15.600 0 0 1 85.413,29.970 L82.456,28.745 A12.400,12.400 0 0 0 83.400,24.000 Z M76.970,38.413 A15.600,15.600 0 0 1 71.000,39.600 L71.000,36.400 A12.400,12.400 0 0 0 75.745,35.456 Z M71.000,39.600 A15.600,15.600 0 0 1 65.030,38.413 L66.255,35.456 A12.400,12.400 0 0 0 71.000,36.400 Z M65.030,38.413 A15.600,15.600 0 0 1 59.969,35.031 L62.232,32.768 A12.400,12.400 0 0 0 66.255,35.456 Z M55.400,24.000 A15.600,15.600 0 0 1 56.587,18.030 L59.544,19.255 A12.400,12.400 0 0 0 58.600,24.000 Z M56.587,18.030 A15.600,15.600 0 0 1 59.969,12.969 L62.232,15.232 A12.400,12.400 0 0 0 59.544,19.255 Z M59.969,12.969 A15.600,15.600 0 0 1 65.030,9.587 L66.255,12.544 A12.400,12.400 0 0 0 62.232,15.232 Z M65.030,9.587 A15.600,15.600 0 0 1 71.000,8.400 L71.000,11.600 A12.400,12.400 0 0 0 66.255,12.544 Z M71.000,8.400 A15.600,15.600 0 0 1 76.970,9.587 L75.745,12.544 A12.400,12.400 0 0 0 71.000,11.600 Z M82.031,12.969 A15.600,15.600 0 0 1 85.413,18.030 L82.456,19.255 A12.400,12.400 0 0 0 79.768,15.232 Z" fill="#000"/>
<circle cx="118.0" cy="24.0" r="20.000" fill="#000"/>
<circle cx="118.0" cy="24.0" r="17.200" fill="#fff"/>
<circle cx="118.0" cy="24.0" r="4.400" fill="#000"/>
<path d="M127.200,24.000 A9.200,9.200 0 0 1 126.500,27.521 L123.543,26.296 A6.000,6.000 0 0 0 124.000,24.000 Z M126.500,27.521 A9.200,9.200 0 0 1 124.505,30.505 L122.243,28.243 A6.000,6.000 0 0 0 123.543,26.296 Z M111.495,30.505 A9.200,9.200 0 0 1 109.500,27.521 L112.457,26.296 A6.000,6.000 0 0 0 113.757,28.243 Z M109.500,27.521 A9.200,9.200 0 0 1 108.800,24.000 L112.000,24.000 A6.000,6.000 0 0 0 112.457,26.296 Z M111.495,17.495 A9.200,9.200 0 0 1 114.479,15.500 L115.704,18.457 A6.000,6.000 0 0 0 113.757,19.757 Z M114.479,15.500 A9.200,9.200 0 0 1 118.000,14.800 L118.000,18.000 A6.000,6.000 0 0 0 115.704,18.457 Z M121.521,15.500 A9.200,9.200 0 0 1 124.505,17.495 L122.243,19.757 A6.000,6.000 0 0 0 120.296,18.457 Z M124.505,17.495 A9.200,9.200 0 0 1 126.500,20.479 L123.543,21.704 A6.000,6.000 0 0 0 122.243,19.757 Z M126.500,20.479 A9.200,9.200 0 0 1 127.200,24.000 L124.000,24.000 A6.000,6.000 0 0 0 123.543,21.704 Z M126.768,32.768 A12.400,12.400 0 0 1 122.745,35.456 L121.521,32.500 A9.200,9.200 0 0 0 124.505,30.505 Z M118.000,36.400 A12.400,12.400 0 0 1 113.255,35.456 L114.479,32.500 A9.200,9.200 0 0 0 118.000,33.200 Z M113.255,35.456 A12.400,12.400 0 0 1 109.232,32.768 L111.495,30.505 A9.200,9.200 0 0 0 114.479,32.500 Z M105.600,24.000 A12.400,12.400 0 0 1 106.544,19.255 L109.500,20.479 A9.200,9.200 0 0 0 108.800,24.000 Z M109.232,15.232 A12.400,12.400 0 0 1 113.255,12.544 L114.479,15.500 A9.200,9.200 0 0 0 111.495,17.495 Z M113.255,12.544 A12.400,12.400 0 0 1 118.000,11.600 L118.000,14.800 A9.200,9.200 0 0 0 114.479,15.500 Z M122.745,12.544 A12.400,12.400 0 0 1 126.768,15.232 L124.505,17.495 A9.200,9.200 0 0 0 121.521,15.500 Z M129.456,19.255 A12.400,12.400 0 0 1 130.400,24.000 L127.200,24.000 A9.200,9.200 0 0 0 126.500,20.479 Z M133.600,24.000 A15.600,15.600 0 0 1 132.413,29.970 L129.456,28.745 A12.400,12.400 0 0 0 130.400,24.000 Z M129.031,35.031 A15.600,15.600 0 0 1 123.970,38.413 L122.745,35.456 A12.400,12.400 0 0 0 126.768,32.768 Z M123.970,38.413 A15.600,15.600 0 0 1 118.000,39.600 L118.000,36.400 A12.400,12.400 0 0 0 122.745,35.456 Z M118.000,39.600 A15.600,15.600 0 0 1 112.030,38.413 L113.255,35.456 A12.400,12.400 0 0 0 118.000,36.400 Z M106.969,35.031 A15.600,15.600 0 0 1 103.587,29.970 L106.544,28.745 A12.400,12.400 0 0 0 109.232,32.768 Z M102.400,24.000 A15.600,15.600 0 0 1 103.587,18.030 L106.544,19.255 A12.400,12.400 0 0 0 105.600,24.000 Z M106.969,12.969 A15.600,15.600 0 0 1 112.030,9.587 L113.255,12.544 A12.400,12.400 0 0 0 109.232,15.232 Z M112.030,9.587 A15.600,15.600 0 0 1 118.000,8.400 L118.000,11.600 A12.400,12.400 0 0 0 113.255,12.544 Z M118.000,8.400 A15.600,15.600 0 0 1 123.970,9.587 L122.745,12.544 A12.400,12.400 0 0 0 118.000,11.600 Z M129.031,12.969 A15.600,15.600 0 0 1 132.413,18.030 L129.456,19.255 A12.400,12.400 0 0 0 126.768,15.232 Z" fill="#000"/>
<circle cx="165.0" cy="24.0" r="20.000" fill="#000"/>
<circle cx="165.0" cy="24.0" r="17.200" fill="#fff"/>
<circle cx="165.0" cy="24.0" r="4.400" fill="#000"/>
<path d="M174.200,24.000 A9.200,9.200 0 0 1 173.500,27.521 L170.543,26.296 A6.000,6.000 0 0 0 171.000,24.000 Z M173.500,27.521 A9.200,9.200 0 0 1 171.505,30.505 L169.243,28.243 A6.000,6.000 0 0 0 170.543,26.296 Z M158.495,30.505 A9.200,9.200 0 0 1 156.500,27.521 L159.457,26.296 A6.000,6.000 0 0 0 160.757,28.243 Z M156.500,27.521 A9.200,9.200 0 0 1 155.800,24.000 L159.000,24.000 A6.000,6.000 0 0 0 159.457,26.296 Z M158.495,17.495 A9.200,9.200 0 0 1 161.479,15.500 L162.704,18.457 A6.000,6.000 0 0 0 160.757,19.757 Z M161.479,15.500 A9.200,9.200 0 0 1 165.000,14.800 L165.000,18.000 A6.000,6.000 0 0 0 162.704,18.457 Z M168.521,15.500 A9.200,9.200 0 0 1 171.505,17.495 L169.243,19.757 A6.000,6.000 0 0 0 167.296,18.457 Z M171.505,17.495 A9.200,9.200 0 0 1 173.500,20.479 L170.543,21.704 A6.000,6.000 0 0 0 169.243,19.757 Z M173.500,20.479 A9.200,9.200 0 0 1 174.200,24.000 L171.000,24.000 A6.000,6.000 0 0 0 170.543,21.704 Z M173.768,32.768 A12.400,12.400 0 0 1 169.745,35.456 L168.521,32.500 A9.200,9.200 0 0 0 171.505,30.505 Z M165.000,36.400 A12.400,12.400 0 0 1 160.255,35.456 L161.479,32.500 A9.200,9.200 0 0 0 165.000,33.200 Z M160.255,35.456 A12.400,12.400 0 0 1 156.232,32.768 L158.495,30.505 A9.200,9.200 0 0 0 161.479,32.500 Z M156.232,32.768 A12.400,12.400 0 0 1 153.544,28.745 L156.500,27.521 A9.200,9.200 0 0 0 158.495,30.505 Z M152.600,24.000 A12.400,12.400 0 0 1 153.544,19.255 L156.500,20.479 A9.200,9.200 0 0 0 155.800,24.000 Z M153.544,19.255 A12.400,12.400 0 0 1 156.232,15.232 L158.495,17.495 A9.200,9.200 0 0 0 156.500,20.479 Z M160.255,12.544 A12.400,12.400 0 0 1 165.000,11.600 L165.000,14.800 A9.200,9.200 0 0 0 161.479,15.500 Z M176.456,19.255 A12.400,12.400 0 0 1 177.400,24.000 L174.200,24.000 A9.200,9.200 0 0 0 173.500,20.479 Z M180.600,24.000 A15.600,15.600 0 0 1 179.413,29.970 L176.456,28.745 A12.400,12.400 0 0 0 177.400,24.000 Z M170.970,38.413 A15.600,15.600 0 0 1 165.000,39.600 L165.000,36.400 A12.400,12.400 0 0 0 169.745,35.456 Z M165.000,39.600 A15.600,15.600 0 0 1 159.030,38.413 L160.255,35.456 A12.400,12.400 0 0 0 165.000,36.400 Z M159.030,38.413 A15.600,15.600 0 0 1 153.969,35.031 L156.232,32.768 A12.400,12.400 0 0 0 160.255,35.456 Z M149.400,24.000 A15.600,15.600 0 0 1 150.587,18.030 L153.544,19.255 A12.400,12.400 0 0 0 152.600,24.000 Z M150.587,18.030 A15.600,15.600 0 0 1 153.969,12.969 L156.232,15.232 A12.400,12.400 0 0 0 153.544,19.255 Z M153.969,12.969 A15.600,15.600 0 0 1 159.030,9.587 L160.255,12.544 A12.400,12.400 0 0 0 156.232,15.232 Z M159.030,9.587 A15.600,15.600 0 0 1 165.000,8.400 L165.000,11.600 A12.400,12.400 0 0 0 160.255,12.544 Z M165.000,8.400 A15.600,15.600 0 0 1 170.970,9.587 L169.745,12.544 A12.400,12.400 0 0 0 165.000,11.600 Z M176.031,12.969 A15.600,15.600 0 0 1 179.413,18.030 L176.456,19.255 A12.400,12.400 0 0 0 173.768,15.232 Z" fill="#000"/>
<circle cx="212.0" cy="24.0" r="20.000" fill="#000"/>
<circle cx="212.0" cy="24.0" r="17.200" fill="#fff"/>
<circle cx="212.0" cy="24.0" r="4.400" fill="#000"/>
<path d="M221.200,24.000 A9.200,9.200 0 0 1 220.500,27.521 L217.543,26.296 A6.000,6.000 0 0 0 218.000,24.000 Z M220.500,27.521 A9.200,9.200 0 0 1 218.505,30.505 L216.243,28.243 A6.000,6.000 0 0 0 217.543,26.296 Z M205.495,30.505 A9.200,9.200 0 0 1 203.500,27.521 L206.457,26.296 A6.000,6.000 0 0 0 207.757,28.243 Z M203.500,27.521 A9.200,9.200 0 0 1 202.800,24.000 L206.000,24.000 A6.000,6.000 0 0 0 206.457,26.296 Z M205.495,17.495 A9.200,9.200 0 0 1 208.479,15.500 L209.704,18.457 A6.000,6.000 0 0 0 207.757,19.757 Z M208.479,15.500 A9.200,9.200 0 0 1 212.000,14.800 L212.000,18.000 A6.000,6.000 0 0 0 209.704,18.457 Z M215.521,15.500 A9.200,9.200 0 0 1 218.505,17.495 L216.243,19.757 A6.000,6.000 0 0 0 214.296,18.457 Z M218.505,17.495 A9.200,9.200 0 0 1 220.500,20.479 L217.543,21.704 A6.000,6.000 0 0 0 216.243,19.757 Z M220.500,20.479 A9.200,9.200 0 0 1 221.200,24.000 L218.000,24.000 A6.000,6.000 0 0 0 217.543,21.704 Z M212.000,36.400 A12.400,12.400 0 0 1 207.255,35.456 L208.479,32.500 A9.200,9.200 0 0 0 212.000,33.200 Z M207.255,35.456 A12.400,12.400 0 0 1 203.232,32.768 L205.495,30.505 A9.200,9.200 0 0 0 208.479,32.500 Z M203.232,32.768 A12.400,12.400 0 0 1 200.544,28.745 L203.500,27.521 A9.200,9.200 0 0 0 205.495,30.505 Z M200.544,28.745 A12.400,12.400 0 0 1 199.600,24.000 L202.800,24.000 A9.200,9.200 0 0 0 203.500,27.521 Z M212.000,11.600 A12.400,12.400 0 0 1 216.745,12.544 L215.521,15.500 A9.200,9.200 0 0 0 212.000,14.800 Z M216.745,12.544 A12.400,12.400 0 0 1 220.768,15.232 L218.505,17.495 A9.200,9.200 0 0 0 215.521,15.500 Z M220.768,15.232 A12.400,12.400 0 0 1 223.456,19.255 L220.500,20.479 A9.200,9.200 0 0 0 218.505,17.495 Z M223.456,19.255 A12.400,12.400 0 0 1 224.400,24.000 L221.200,24.000 A9.200,9.200 0 0 0 220.500,20.479 Z M227.600,24.000 A15.600,15.600 0 0 1 226.413,29.970 L223.456,28.745 A12.400,12.400 0 0 0 224.400,24.000 Z M226.413,29.970 A15.600,15.600 0 0 1 223.031,35.031 L220.768,32.768 A12.400,12.400 0 0 0 223.456,28.745 Z M223.031,35.031 A15.600,15.600 0 0 1 217.970,38.413 L216.745,35.456 A12.400,12.400 0 0 0 220.768,32.768 Z M197.587,29.970 A15.600,15.600 0 0 1 196.400,24.000 L199.600,24.000 A12.400,12.400 0 0 0 200.544,28.745 Z M196.400,24.000 A15.600,15.600 0 0 1 197.587,18.030 L200.544,19.255 A12.400,12.400 0 0 0 199.600,24.000 Z M197.587,18.030 A15.600,15.600 0 0 1 200.969,12.969 L203.232,15.232 A12.400,12.400 0 0 0 200.544,19.255 Z M206.030,9.587 A15.600,15.600 0 0 1 212.000,8.400 L212.000,11.600 A12.400,12.400 0 0 0 207.255,12.544 Z M223.031,12.969 A15.600,15.600 0 0 1 226.413,18.030 L223.456,19.255 A12.400,12.400 0 0 0 220.768,15.232 Z" fill="#000"/>
<circle cx="259.0" cy="24.0" r="20.000" fill="#000"/>
<circle cx="259.0" cy="24.0" r="17.200" fill="#fff"/>
<circle cx="259.0" cy="24.0" r="4.400" fill="#000"/>
<path d="M268.200,24.000 A9.200,9.200 0 0 1 267.500,27.521 L264.543,26.296 A6.000,6.000 0 0 0 265.000,24.000 Z M267.500,27.521 A9.200,9.200 0 0 1 265.505,30.505 L263.243,28.243 A6.000,6.000 0 0 0 264.543,26.296 Z M252.495,30.505 A9.200,9.200 0 0 1 250.500,27.521 L253.457,26.296 A6.000,6.000 0 0 0 254.757,28.243 Z M250.500,27.521 A9.200,9.200 0 0 1 249.800,24.000 L253.000,24.000 A6.000,6.000 0 0 0 253.457,26.296 Z M252.495,17.495 A9.200,9.200 0 0 1 255.479,15.500 L256.704,18.457 A6.000,6.000 0 0 0 254.757,19.757 Z M255.479,15.500 A9.200,9.200 0 0 1 259.000,14.800 L259.000,18.000 A6.000,6.000 0 0 0 256.704,18.457 Z M262.521,15.500 A9.200,9.200 0 0 1 265.505,17.495 L263.243,19.757 A6.000,6.000 0 0 0 261.296,18.457 Z M265.505,17.495 A9.200,9.200 0 0 1 267.500,20.479 L264.543,21.704 A6.000,6.000 0 0 0 263.243,19.757 Z M267.500,20.479 A9.200,9.200 0 0 1 268.200,24.000 L265.000,24.000 A6.000,6.000 0 0 0 264.543,21.704 Z M259.000,36.400 A12.400,12.400 0 0 1 254.255,35.456 L255.479,32.500 A9.200,9.200 0 0 0 259.000,33.200 Z M254.255,35.456 A12.400,12.400 0 0 1 250.232,32.768 L252.495,30.505 A9.200,9.200 0 0 0 255.479,32.500 Z M250.232,32.768 A12.400,12.400 0 0 1 247.544,28.745 L250.500,27.521 A9.200,9.200 0 0 0 252.495,30.505 Z M247.544,28.745 A12.400,12.400 0 0 1 246.600,24.000 L249.800,24.000 A9.200,9.200 0 0 0 250.500,27.521 Z M259.000,11.600 A12.400,12.400 0 0 1 263.745,12.544 L262.521,15.500 A9.200,9.200 0 0 0 259.000,14.800 Z M263.745,12.544 A12.400,12.400 0 0 1 267.768,15.232 L265.505,17.495 A9.200,9.200 0 0 0 262.521,15.500 Z M267.768,15.232 A12.400,12.400 0 0 1 270.456,19.255 L267.500,20.479 A9.200,9.200 0 0 0 265.505,17.495 Z M270.456,19.255 A12.400,12.400 0 0 1 271.400,24.000 L268.200,24.000 A9.200,9.200 0 0 0 267.500,20.479 Z M274.600,24.000 A15.600,15.600 0 0 1 273.413,29.970 L270.456,28.745 A12.400,12.400 0 0 0 271.400,24.000 Z M273.413,29.970 A15.600,15.600 0 0 1 270.031,35.031 L267.768,32.768 A12.400,12.400 0 0 0 270.456,28.745 Z M270.031,35.031 A15.600,15.600 0 0 1 264.970,38.413 L263.745,35.456 A12.400,12.400 0 0 0 267.768,32.768 Z M244.587,29.970 A15.600,15.600 0 0 1 243.400,24.000 L246.600,24.000 A12.400,12.400 0 0 0 247.544,28.745 Z M243.400,24.000 A15.600,15.600 0 0 1 244.587,18.030 L247.544,19.255 A12.400,12.400 0 0 0 246.600,24.000 Z M244.587,18.030 A15.600,15.600 0 0 1 247.969,12.969 L250.232,15.232 A12.400,12.400 0 0 0 247.544,19.255 Z M253.030,9.587 A15.600,15.600 0 0 1 259.000,8.400 L259.000,11.600 A12.400,12.400 0 0 0 254.255,12.544 Z M270.031,12.969 A15.600,15.600 0 0 1 273.413,18.030 L270.456,19.255 A12.400,12.400 0 0 0 267.768,15.232 Z" fill="#000"/>
<circle cx="306.0" cy="24.0" r="20.000" fill="#000"/>
<circle cx="306.0" cy="24.0" r="17.200" fill="#fff"/>
<circle cx="306.0" cy="24.0" r="4.400" fill="#000"/>
<path d="M315.200,24.000 A9.200,9.200 0 0 1 314.500,27.521 L311.543,26.296 A6.000,6.000 0 0 0 312.000,24.000 Z M314.500,27.521 A9.200,9.200 0 0 1 312.505,30.505 L310.243,28.243 A6.000,6.000 0 0 0 311.543,26.296 Z M299.495,30.505 A9.200,9.200 0 0 1 297.500,27.521 L300.457,26.296 A6.000,6.000 0 0 0 301.757,28.243 Z M297.500,27.521 A9.200,9.200 0 0 1 296.800,24.000 L300.000,24.000 A6.000,6.000 0 0 0 300.457,26.296 Z M299.495,17.495 A9.200,9.200 0 0 1 302.479,15.500 L303.704,18.457 A6.000,6.000 0 0 0 301.757,19.757 Z M302.479,15.500 A9.200,9.200 0 0 1 306.000,14.800 L306.000,18.000 A6.000,6.000 0 0 0 303.704,18.457 Z M309.521,15.500 A9.200,9.200 0 0 1 312.505,17.495 L310.243,19.757 A6.000,6.000 0 0 0 308.296,18.457 Z M312.505,17.495 A9.200,9.200 0 0 1 314.500,20.479 L311.543,21.704 A6.000,6.000 0 0 0 310.243,19.757 Z M314.500,20.479 A9.200,9.200 0 0 1 315.200,24.000 L312.000,24.000 A6.000,6.000 0 0 0 311.543,21.704 Z M306.000,36.400 A12.400,12.400 0 0 1 301.255,35.456 L302.479,32.500 A9.200,9.200 0 0 0 306.000,33.200 Z M293.600,24.000 A12.400,12.400 0 0 1 294.544,19.255 L297.500,20.479 A9.200,9.200 0 0 0 296.800,24.000 Z M301.255,12.544 A12.400,12.400 0 0 1 306.000,11.600 L306.000,14.800 A9.200,9.200 0 0 0 302.479,15.500 Z M317.456,19.255 A12.400,12.400 0 0 1 318.400,24.000 L315.200,24.000 A9.200,9.200 0 0 0 314.500,20.479 Z M321.600,24.000 A15.600,15.600 0 0 1 320.413,29.970 L317.456,28.745 A12.400,12.400 0 0 0 318.400,24.000 Z M311.970,38.413 A15.600,15.600 0 0 1 306.000,39.600 L306.000,36.400 A12.400,12.400 0 0 0 310.745,35.456 Z M306.000,39.600 A15.600,15.600 0 0 1 300.030,38.413 L301.255,35.456 A12.400,12.400 0 0 0 306.000,36.400 Z M294.969,12.969 A15.600,15.600 0 0 1 300.030,9.587 L301.255,12.544 A12.400,12.400 0 0 0 297.232,15.232 Z M300.030,9.587 A15.600,15.600 0 0 1 306.000,8.400 L306.000,11.600 A12.400,12.400 0 0 0 301.255,12.544 Z M317.031,12.969 A15.600,15.600 0 0 1 320.413,18.030 L317.456,19.255 A12.400,12.400 0 0 0 314.768,15.232 Z" fill="#000"/>
<circle cx="353.0" cy="24.0" r="20.000" fill="#000"/>
<circle cx="353.0" cy="24.0" r="17.200" fill="#fff"/>
<circle cx="353.0" cy="24.0" r="4.400" fill="#000"/>
<path d="M362.200,24.000 A9.200,9.200 0 0 1 361.500,27.521 L358.543,26.296 A6.000,6.000 0 0 0 359.000,24.000 Z M361.500,27.521 A9.200,9.200 0 0 1 359.505,30.505 L357.243,28.243 A6.000,6.000 0 0 0 358.543,26.296 Z M346.495,30.505 A9.200,9.200 0 0 1 344.500,27.521 L347.457,26.296 A6.000,6.000 0 0 0 348.757,28.243 Z M344.500,27.521 A9.200,9.200 0 0 1 343.800,24.000 L347.000,24.000 A6.000,6.000 0 0 0 347.457,26.296 Z M346.495,17.495 A9.200,9.200 0 0 1 349.479,15.500 L350.704,18.457 A6.000,6.000 0 0 0 348.757,19.757 Z M349.479,15.500 A9.200,9.200 0 0 1 353.000,14.800 L353.000,18.000 A6.000,6.000 0 0 0 350.704,18.457 Z M356.521,15.500 A9.200,9.200 0 0 1 359.505,17.495 L357.243,19.757 A6.000,6.000 0 0 0 355.296,18.457 Z M359.505,17.495 A9.200,9.200 0 0 1 361.500,20.479 L358.543,21.704 A6.000,6.000 0 0 0 357.243,19.757 Z M361.500,20.479 A9.200,9.200 0 0 1 362.200,24.000 L359.000,24.000 A6.000,6.000 0 0 0 358.543,21.704 Z M357.745,35.456 A12.400,12.400 0 0 1 353.000,36.400 L353.000,33.200 A9.200,9.200 0 0 0 356.521,32.500 Z M353.000,36.400 A12.400,12.400 0 0 1 348.255,35.456 L349.479,32.500 A9.200,9.200 0 0 0 353.000,33.200 Z M341.544,28.745 A12.400,12.400 0 0 1 340.600,24.000 L343.800,24.000 A9.200,9.200 0 0 0 344.500,27.521 Z M340.600,24.000 A12.400,12.400 0 0 1 341.544,19.255 L344.500,20.479 A9.200,9.200 0 0 0 343.800,24.000 Z M341.544,19.255 A12.400,12.400 0 0 1 344.232,15.232 L346.495,17.495 A9.200,9.200 0 0 0 344.500,20.479 Z M348.255,12.544 A12.400,12.400 0 0 1 353.000,11.600 L353.000,14.800 A9.200,9.200 0 0 0 349.479,15.500 Z M357.745,12.544 A12.400,12.400 0 0 1 361.768,15.232 L359.505,17.495 A9.200,9.200 0 0 0 356.521,15.500 Z M364.456,19.255 A12.400,12.400 0 0 1 365.400,24.000 L362.200,24.000 A9.200,9.200 0 0 0 361.500,20.479 Z M368.600,24.000 A15.600,15.600 0 0 1 367.413,29.970 L364.456,28.745 A12.400,12.400 0 0 0 365.400,24.000 Z M364.031,35.031 A15.600,15.600 0 0 1 358.970,38.413 L357.745,35.456 A12.400,12.400 0 0 0 361.768,32.768 Z M358.970,38.413 A15.600,15.600 0 0 1 353.000,39.600 L353.000,36.400 A12.400,12.400 0 0 0 357.745,35.456 Z M353.000,39.600 A15.600,15.600 0 0 1 347.030,38.413 L348.255,35.456 A12.400,12.400 0 0 0 353.000,36.400 Z M347.030,38.413 A15.600,15.600 0 0 1 341.969,35.031 L344.232,32.768 A12.400,12.400 0 0 0 348.255,35.456 Z M347.030,9.587 A15.600,15.600 0 0 1 353.000,8.400 L353.000,11.600 A12.400,12.400 0 0 0 348.255,12.544 Z M358.970,9.587 A15.600,15.600 0 0 1 364.031,12.969 L361.768,15.232 A12.400,12.400 0 0 0 357.745,12.544 Z M364.031,12.969 A15.600,15.600 0 0 1 367.413,18.030 L364.456,19.255 A12.400,12.400 0 0 0 361.768,15.232 Z" fill="#000"/>
</svg>